<svg width="82" height="82" viewBox="0 0 82 82" fill="none" xmlns="http://www.w3.org/2000/svg">
<rect width="82" height="82" rx="8" fill="#52E0FF" fill-opacity="0.2"/>
<path d="M23.828 44.5559L21 47.3839L30.898 51.6259L35.142 61.5259L37.97 58.6979L36.556 51.6259L43.182 44.9999L50.402 60.4079L53.08 57.7299L50.7 37.4839L56.356 31.8259C56.738 31.4569 57.0428 31.0155 57.2524 30.5275C57.462 30.0395 57.5724 29.5146 57.577 28.9835C57.5816 28.4524 57.4804 27.9257 57.2793 27.4341C57.0782 26.9425 56.7811 26.4959 56.4056 26.1203C56.03 25.7447 55.5834 25.4477 55.0918 25.2466C54.6002 25.0455 54.0735 24.9443 53.5424 24.9489C53.0113 24.9535 52.4864 25.0638 51.9984 25.2735C51.5104 25.4831 51.069 25.7878 50.7 26.1699L44.894 31.9759L24.648 29.5939L22.118 32.1259L37.406 39.4659L30.9 45.9719L23.828 44.5559V44.5559Z" fill="#00BEE8"/>
</svg>
