<svg width="82" height="82" viewBox="0 0 82 82" fill="none" xmlns="http://www.w3.org/2000/svg">
<rect width="82" height="82" rx="8" fill="#9F00D7" fill-opacity="0.2"/>
<path d="M59 41.44C59 30.46 50.48 23 41 23C31.62 23 23 30.3 23 41.56C21.8 42.24 21 43.52 21 45V49C21 51.2 22.8 53 25 53C26.1 53 27 52.1 27 51V41.38C27 33.72 32.9 27.02 40.56 26.8C42.4347 26.743 44.3018 27.0629 46.0506 27.7407C47.7994 28.4185 49.3943 29.4405 50.7409 30.746C52.0875 32.0516 53.1583 33.6141 53.8899 35.3411C54.6215 37.0681 54.999 38.9244 55 40.8V55H41C39.9 55 39 55.9 39 57C39 58.1 39.9 59 41 59H55C57.2 59 59 57.2 59 55V52.56C60.18 51.94 61 50.72 61 49.28V44.68C61 43.28 60.18 42.06 59 41.44V41.44Z" fill="#9F00D7"/>
<path d="M35 45C36.1046 45 37 44.1046 37 43C37 41.8954 36.1046 41 35 41C33.8954 41 33 41.8954 33 43C33 44.1046 33.8954 45 35 45Z" fill="#9F00D7"/>
<path d="M47 45C48.1046 45 49 44.1046 49 43C49 41.8954 48.1046 41 47 41C45.8954 41 45 41.8954 45 43C45 44.1046 45.8954 45 47 45Z" fill="#9F00D7"/>
<path d="M52.9999 39.06C52.5231 36.2483 51.0668 33.6959 48.8888 31.8548C46.7109 30.0136 43.9518 29.0023 41.0999 29C35.0399 29 28.5199 34.02 29.0399 41.9C31.5062 40.8908 33.6844 39.287 35.3804 37.2316C37.0764 35.1762 38.2374 32.733 38.7599 30.12C41.3799 35.38 46.7599 39 52.9999 39.06Z" fill="#9F00D7"/>
</svg>
